<svg width="514" height="147" viewBox="0 0 514 147" fill="none" xmlns="http://www.w3.org/2000/svg">
<g clip-path="url(#clip0_27_9)">
<g filter="url(#filter0_d_27_9)">
<path d="M126.279 124H98.247C93.9803 124 91.1217 123.701 89.671 123.104C88.2203 122.507 87.495 121.568 87.495 120.288V37.984C87.495 33.888 99.8257 31.84 124.487 31.84C138.652 31.84 148.423 33.2053 153.799 35.936C159.26 38.752 162.759 42.336 164.295 46.688C165.148 49.248 165.575 52.2347 165.575 55.648C165.575 62.304 164.423 67.296 162.119 70.624C159.9 73.952 157.468 75.8293 154.823 76.256C158.834 77.1093 162.162 79.072 164.807 82.144C167.452 85.216 168.775 90.4213 168.775 97.76C168.775 106.293 166.172 112.608 160.967 116.704C156.444 120.288 149.532 122.549 140.231 123.488C136.306 123.829 131.655 124 126.279 124ZM126.407 68.192C130.759 68.192 132.935 65.2907 132.935 59.488C132.935 56.5867 132.338 54.4533 131.143 53.088C130.034 51.6373 128.754 50.912 127.303 50.912H123.207V68.192H126.407ZM123.207 104.928H126.407C130.759 104.928 132.935 102.027 132.935 96.224C132.935 93.3227 132.338 91.1893 131.143 89.824C130.034 88.3733 128.754 87.648 127.303 87.648H123.207V104.928Z" fill="white"/>
</g>
<g filter="url(#filter1_d_27_9)">
<path d="M30.08 32.352C30.08 30.3893 31.7013 28.5547 34.944 26.848C38.1867 25.056 42.4533 24.16 47.744 24.16C51.84 24.16 54.4853 25.0133 55.68 26.72C56.5333 27.9147 56.96 29.024 56.96 30.048V33.888C66.6027 34.912 73.3013 36.704 77.056 39.264C78.592 40.288 79.36 41.2693 79.36 42.208C79.36 46.6453 78.2933 51.424 76.16 56.544C74.112 61.664 72.1067 64.224 70.144 64.224C69.8027 64.224 68.6933 63.84 66.816 63.072C61.184 60.5973 56.4907 59.36 52.736 59.36C49.0667 59.36 46.5493 59.7013 45.184 60.384C43.904 61.0667 43.264 62.1333 43.264 63.584C43.264 64.9493 44.2027 66.016 46.08 66.784C47.9573 67.552 50.2613 68.2347 52.992 68.832C55.808 69.344 58.8373 70.24 62.08 71.52C65.408 72.8 68.48 74.336 71.296 76.128C74.112 77.92 76.4587 80.608 78.336 84.192C80.2133 87.6907 81.152 91.2747 81.152 94.944C81.152 98.6133 80.8107 101.643 80.128 104.032C79.4453 106.421 78.2507 108.896 76.544 111.456C74.9227 114.016 72.4053 116.32 68.992 118.368C65.664 120.331 61.6533 121.781 56.96 122.72V124.768C56.96 126.731 55.3387 128.565 52.096 130.272C48.8533 132.064 44.5867 132.96 39.296 132.96C35.2 132.96 32.5547 132.107 31.36 130.4C30.5067 129.205 30.08 128.096 30.08 127.072V123.232C24.5333 122.72 19.712 121.909 15.616 120.8C7.76533 118.667 3.84 116.363 3.84 113.888C3.84 109.109 4.52267 104.16 5.888 99.04C7.25333 93.8347 8.87467 91.232 10.752 91.232C11.0933 91.232 14.6347 92.384 21.376 94.688C28.1173 96.992 33.1947 98.144 36.608 98.144C40.0213 98.144 42.24 97.8027 43.264 97.12C44.288 96.352 44.8 95.2853 44.8 93.92C44.8 92.5547 43.8613 91.4027 41.984 90.464C40.1067 89.44 37.76 88.6293 34.944 88.032C32.128 87.4347 29.056 86.496 25.728 85.216C22.4853 83.936 19.456 82.4427 16.64 80.736C13.824 79.0293 11.4773 76.512 9.6 73.184C7.72267 69.856 6.784 65.9733 6.784 61.536C6.784 45.8347 14.5493 36.6613 30.08 34.016V32.352Z" fill="white"/>
</g>
<g filter="url(#filter2_d_27_9)">
<path d="M306.279 124H278.247C273.98 124 271.122 123.701 269.671 123.104C268.22 122.507 267.495 121.568 267.495 120.288V37.984C267.495 33.888 279.826 31.84 304.487 31.84C318.652 31.84 328.423 33.2053 333.799 35.936C339.26 38.752 342.759 42.336 344.295 46.688C345.148 49.248 345.575 52.2347 345.575 55.648C345.575 62.304 344.423 67.296 342.119 70.624C339.9 73.952 337.468 75.8293 334.823 76.256C338.834 77.1093 342.162 79.072 344.807 82.144C347.452 85.216 348.775 90.4213 348.775 97.76C348.775 106.293 346.172 112.608 340.967 116.704C336.444 120.288 329.532 122.549 320.231 123.488C316.306 123.829 311.655 124 306.279 124ZM306.407 68.192C310.759 68.192 312.935 65.2907 312.935 59.488C312.935 56.5867 312.338 54.4533 311.143 53.088C310.034 51.6373 308.754 50.912 307.303 50.912H303.207V68.192H306.407ZM303.207 104.928H306.407C310.759 104.928 312.935 102.027 312.935 96.224C312.935 93.3227 312.338 91.1893 311.143 89.824C310.034 88.3733 308.754 87.648 307.303 87.648H303.207V104.928Z" fill="white"/>
</g>
<g filter="url(#filter3_d_27_9)">
<path d="M388.279 124H360.247C355.98 124 353.122 123.701 351.671 123.104C350.22 122.507 349.495 121.568 349.495 120.288V37.984C349.495 33.888 361.826 31.84 386.487 31.84C400.652 31.84 410.423 33.2053 415.799 35.936C421.26 38.752 424.759 42.336 426.295 46.688C427.148 49.248 427.575 52.2347 427.575 55.648C427.575 62.304 426.423 67.296 424.119 70.624C421.9 73.952 419.468 75.8293 416.823 76.256C420.834 77.1093 424.162 79.072 426.807 82.144C429.452 85.216 430.775 90.4213 430.775 97.76C430.775 106.293 428.172 112.608 422.967 116.704C418.444 120.288 411.532 122.549 402.231 123.488C398.306 123.829 393.655 124 388.279 124ZM388.407 68.192C392.759 68.192 394.935 65.2907 394.935 59.488C394.935 56.5867 394.338 54.4533 393.143 53.088C392.034 51.6373 390.754 50.912 389.303 50.912H385.207V68.192H388.407ZM385.207 104.928H388.407C392.759 104.928 394.935 102.027 394.935 96.224C394.935 93.3227 394.338 91.1893 393.143 89.824C392.034 88.3733 390.754 87.648 389.303 87.648H385.207V104.928Z" fill="white"/>
</g>
<g filter="url(#filter4_d_27_9)">
<path d="M214.509 125.152C207.426 125.152 201.325 124.512 196.205 123.232C191.17 121.867 186.52 119.477 182.253 116.064C173.634 109.323 169.325 96.3947 169.325 77.28C169.325 69.2587 170.477 62.2613 172.781 56.288C175.17 50.3147 178.456 45.5787 182.637 42.08C190.829 35.2533 201.453 31.84 214.509 31.84C221.25 31.84 227.096 32.4373 232.045 33.632C237.08 34.8267 241.816 37.0027 246.253 40.16C255.213 46.6453 259.693 59.0187 259.693 77.28C259.693 93.664 255.64 105.739 247.533 113.504C239.426 121.269 228.418 125.152 214.509 125.152ZM210.285 103.264C211.309 104.459 212.717 105.056 214.509 105.056C216.301 105.056 217.709 104.459 218.733 103.264C219.757 101.984 220.61 99.3387 221.293 95.328C221.976 91.232 222.317 85.5573 222.317 78.304C222.317 71.0507 221.976 65.4613 221.293 61.536C220.61 57.6107 219.757 55.0507 218.733 53.856C217.709 52.6613 216.301 52.064 214.509 52.064C212.717 52.064 211.309 52.6613 210.285 53.856C209.261 55.0507 208.408 57.6107 207.725 61.536C207.042 65.4613 206.701 71.0507 206.701 78.304C206.701 85.5573 207.042 91.232 207.725 95.328C208.408 99.3387 209.261 101.984 210.285 103.264Z" fill="white"/>
</g>
<g filter="url(#filter5_d_27_9)">
<path d="M486.649 120.288C486.649 121.397 484.046 122.293 478.841 122.976C473.635 123.659 468.43 124 463.225 124C458.105 124 454.777 123.744 453.241 123.232C451.705 122.635 450.937 121.653 450.937 120.288V98.016C434.041 63.456 425.593 44.6827 425.593 41.696C425.593 39.904 428.451 38.0267 434.169 36.064C439.886 34.1013 445.902 33.12 452.217 33.12C460.323 33.12 464.633 35.5093 465.145 40.288L468.601 74.72H470.009L472.441 41.184C472.611 38.7947 475.641 36.8747 481.529 35.424C487.417 33.888 493.006 33.12 498.297 33.12C503.587 33.12 507.257 33.888 509.305 35.424C511.353 36.96 512.377 38.5813 512.377 40.288C512.377 41.9093 503.801 61.152 486.649 98.016V120.288Z" fill="white"/>
</g>
</g>
<defs>
<filter id="filter0_d_27_9" x="86.495" y="31.84" width="83.28" height="97.16" filterUnits="userSpaceOnUse" color-interpolation-filters="sRGB">
<feFlood flood-opacity="0" result="BackgroundImageFix"/>
<feColorMatrix in="SourceAlpha" type="matrix" values="0 0 0 0 0 0 0 0 0 0 0 0 0 0 0 0 0 0 127 0" result="hardAlpha"/>
<feOffset dy="4"/>
<feGaussianBlur stdDeviation="0.5"/>
<feComposite in2="hardAlpha" operator="out"/>
<feColorMatrix type="matrix" values="0 0 0 0 0 0 0 0 0 0 0 0 0 0 0 0 0 0 0.25 0"/>
<feBlend mode="normal" in2="BackgroundImageFix" result="effect1_dropShadow_27_9"/>
<feBlend mode="normal" in="SourceGraphic" in2="effect1_dropShadow_27_9" result="shape"/>
</filter>
<filter id="filter1_d_27_9" x="2.84" y="24.16" width="79.312" height="113.8" filterUnits="userSpaceOnUse" color-interpolation-filters="sRGB">
<feFlood flood-opacity="0" result="BackgroundImageFix"/>
<feColorMatrix in="SourceAlpha" type="matrix" values="0 0 0 0 0 0 0 0 0 0 0 0 0 0 0 0 0 0 127 0" result="hardAlpha"/>
<feOffset dy="4"/>
<feGaussianBlur stdDeviation="0.5"/>
<feComposite in2="hardAlpha" operator="out"/>
<feColorMatrix type="matrix" values="0 0 0 0 0 0 0 0 0 0 0 0 0 0 0 0 0 0 0.25 0"/>
<feBlend mode="normal" in2="BackgroundImageFix" result="effect1_dropShadow_27_9"/>
<feBlend mode="normal" in="SourceGraphic" in2="effect1_dropShadow_27_9" result="shape"/>
</filter>
<filter id="filter2_d_27_9" x="266.495" y="31.84" width="83.28" height="97.16" filterUnits="userSpaceOnUse" color-interpolation-filters="sRGB">
<feFlood flood-opacity="0" result="BackgroundImageFix"/>
<feColorMatrix in="SourceAlpha" type="matrix" values="0 0 0 0 0 0 0 0 0 0 0 0 0 0 0 0 0 0 127 0" result="hardAlpha"/>
<feOffset dy="4"/>
<feGaussianBlur stdDeviation="0.5"/>
<feComposite in2="hardAlpha" operator="out"/>
<feColorMatrix type="matrix" values="0 0 0 0 0 0 0 0 0 0 0 0 0 0 0 0 0 0 0.25 0"/>
<feBlend mode="normal" in2="BackgroundImageFix" result="effect1_dropShadow_27_9"/>
<feBlend mode="normal" in="SourceGraphic" in2="effect1_dropShadow_27_9" result="shape"/>
</filter>
<filter id="filter3_d_27_9" x="348.495" y="31.84" width="83.28" height="97.16" filterUnits="userSpaceOnUse" color-interpolation-filters="sRGB">
<feFlood flood-opacity="0" result="BackgroundImageFix"/>
<feColorMatrix in="SourceAlpha" type="matrix" values="0 0 0 0 0 0 0 0 0 0 0 0 0 0 0 0 0 0 127 0" result="hardAlpha"/>
<feOffset dy="4"/>
<feGaussianBlur stdDeviation="0.5"/>
<feComposite in2="hardAlpha" operator="out"/>
<feColorMatrix type="matrix" values="0 0 0 0 0 0 0 0 0 0 0 0 0 0 0 0 0 0 0.25 0"/>
<feBlend mode="normal" in2="BackgroundImageFix" result="effect1_dropShadow_27_9"/>
<feBlend mode="normal" in="SourceGraphic" in2="effect1_dropShadow_27_9" result="shape"/>
</filter>
<filter id="filter4_d_27_9" x="168.325" y="31.84" width="92.368" height="98.312" filterUnits="userSpaceOnUse" color-interpolation-filters="sRGB">
<feFlood flood-opacity="0" result="BackgroundImageFix"/>
<feColorMatrix in="SourceAlpha" type="matrix" values="0 0 0 0 0 0 0 0 0 0 0 0 0 0 0 0 0 0 127 0" result="hardAlpha"/>
<feOffset dy="4"/>
<feGaussianBlur stdDeviation="0.5"/>
<feComposite in2="hardAlpha" operator="out"/>
<feColorMatrix type="matrix" values="0 0 0 0 0 0 0 0 0 0 0 0 0 0 0 0 0 0 0.25 0"/>
<feBlend mode="normal" in2="BackgroundImageFix" result="effect1_dropShadow_27_9"/>
<feBlend mode="normal" in="SourceGraphic" in2="effect1_dropShadow_27_9" result="shape"/>
</filter>
<filter id="filter5_d_27_9" x="424.592" y="33.12" width="88.784" height="95.88" filterUnits="userSpaceOnUse" color-interpolation-filters="sRGB">
<feFlood flood-opacity="0" result="BackgroundImageFix"/>
<feColorMatrix in="SourceAlpha" type="matrix" values="0 0 0 0 0 0 0 0 0 0 0 0 0 0 0 0 0 0 127 0" result="hardAlpha"/>
<feOffset dy="4"/>
<feGaussianBlur stdDeviation="0.5"/>
<feComposite in2="hardAlpha" operator="out"/>
<feColorMatrix type="matrix" values="0 0 0 0 0 0 0 0 0 0 0 0 0 0 0 0 0 0 0.25 0"/>
<feBlend mode="normal" in2="BackgroundImageFix" result="effect1_dropShadow_27_9"/>
<feBlend mode="normal" in="SourceGraphic" in2="effect1_dropShadow_27_9" result="shape"/>
</filter>
<clipPath id="clip0_27_9">
<rect width="514" height="147" fill="white"/>
</clipPath>
</defs>
</svg>
